# xmcd
#
# Track frame offsets:
#	182
#	19330
#	40407
#	60147
#	80747
#	101302
#	121117
#
# Disc length: 1871 seconds
#
# Revision: 0
# Processed by: cddbd v1.5.2PL0 Copyright (c) Steve Scherf et al.
# Submitted via: EasyCDDAExtractor 16.0.6.1
#
DISCID=4c074d07
DTITLE=Backline - Lè ou ni an vakans
DYEAR=1993
DGENRE=Zouk
TTITLE0=Le ou ni an vakans
TTITLE1=Poutchi le kité mwen
TTITLE2=Mizik lanmou
TTITLE3=Pa sav
TTITLE4=Mwen lé chanté
TTITLE5=Pou nou
TTITLE6=Soley épi lanlin
EXTD=
EXTT0=
EXTT1=
EXTT2=
EXTT3=
EXTT4=
EXTT5=
EXTT6=
PLAYORDER=
